# xmcd
#
# Track frame offsets: 
#        150
#        17475
#        32550
#        52725
#        68025
#        81300
#        91275
#        108750
#        126750
#        144675
#        157200
#        171375
#        183225
#        206550
#        223200
#        236550
#        250275
#        265575
#        279000
#        297300
#
# Disc length: 4151 seconds
#
# Revision: 0
# Processed by: cddbd v1.5.2PL0 Copyright (c) Steve Scherf et al.
# Submitted via: ExactAudioCopy v1.1
#
DISCID=1c103514
DTITLE=Greenhorns - Mirek Hoffmann 80
DYEAR=2015
DGENRE=Country
TTITLE0=Divka s vlasem medovym
TTITLE1=Kam te zene proud
TTITLE2=Pastor z Little Fort
TTITLE3=Bam-Bam-Bam
TTITLE4=Plane s travou zelenou
TTITLE5=Hej, Joe
TTITLE6=Zlaty klic
TTITLE7=Prcek Joe
TTITLE8=Cerna barva smuly
TTITLE9=Tam za divokou rekou
TTITLE10=U silnice E55
TTITLE11=Zlate hodinky
TTITLE12=Byl jsem v country nebi
TTITLE13=Nejhezci holku si brat
TTITLE14=Kytku ruzi jsem ji dal
TTITLE15=Tisic carek
TTITLE16=Posledni prani
TTITLE17=Kuchar z Fowler's Bay
TTITLE18=Chces si vzit chlapa
TTITLE19=Mam kovboje cejch
EXTD=
EXTT0=
EXTT1=
EXTT2=
EXTT3=
EXTT4=
EXTT5=
EXTT6=
EXTT7=
EXTT8=
EXTT9=
EXTT10=
EXTT11=
EXTT12=
EXTT13=
EXTT14=
EXTT15=
EXTT16=
EXTT17=
EXTT18=
EXTT19=
PLAYORDER=
